<?xml version="1.0" encoding="utf-8"?>
<!-- Generator: Adobe Illustrator 24.0.2, SVG Export Plug-In . SVG Version: 6.00 Build 0)  -->
<svg version="1.1" id="レイヤー_1" xmlns="http://www.w3.org/2000/svg" xmlns:xlink="http://www.w3.org/1999/xlink" x="0px"
	 y="0px" viewBox="0 0 176.6 33.5" style="enable-background:new 0 0 176.6 33.5;" xml:space="preserve">
<style type="text/css">
	.st0{fill:#306BAC;}
</style>
<g>
	<path class="st0" d="M32.2,0v21.6c-1.6-1.6-3.1-2.4-5.5-3.5c-1.7-0.7-3.5-1.1-4.7-1.2L32.2,0h-1.8L20,17.3c-1.2-0.3-2.3-0.5-3-0.5
		L27.1,0h-1.8L15.1,16.9l-0.1,0c0,0-0.1,0,0,0l-0.1,0.2c-1.3-0.3-2.5-0.4-3-0.5L22,0h-1.8L0,33.5h1.8l9.8-16.3
		c0.6,0.1,1.6,0.3,2.9,0.8L5.1,33.5h1.8l9-14.9c0.9,0.5,1.7,1,2.4,1.5l-8.1,13.4h1.8L19.6,21c0.4,0.3,0.7,0.6,1,1
		c1.4,1.5,2.8,3.9,5,6.3c2.4,2.6,5.9,5.2,6.7,5.2h11V0H32.2z M21.8,17.3c0.5,0.1,1.1,0.3,2.2,0.8c2.3,1,4.2,2.4,5.6,3.9
		c0.8,0.9,1.7,2.1,2.7,3.5v1.8c-0.7-1-1.5-2-2.4-3.3c-2.6-3.5-4.1-4.5-7.6-6c-0.2-0.1-0.5-0.2-0.8-0.3L21.8,17.3z M17.8,18.1
		c-0.4-0.2-0.9-0.3-1.3-0.5l0.2-0.4c0.7,0.1,1.6,0.4,2.8,0.8c0,0,0,0,0,0l-0.4,0.6C18.7,18.5,18.3,18.3,17.8,18.1z M29.8,29.9
		c-1.4-1.4-2.7-3.4-4.5-5.8c-1.8-2.4-3.1-3.7-4.8-4.7l0.4-0.6c1.7,0.9,3.1,2,4.2,3.2c1.4,1.5,2.8,3.9,5,6.3c0.7,0.7,1.4,1.4,2.2,2.1
		v1.5C31.5,31.6,30.8,31,29.8,29.9z"/>
	<g>
		<path class="st0" d="M63.4,7.4c0.3,0,0.5-0.2,0.5-0.5V4.6c0-0.3-0.2-0.5-0.5-0.5H59V1.6h-1.6v2.5h-4.3c-0.3,0-0.5,0.2-0.5,0.5v2.3
			c0,0.3,0.2,0.5,0.5,0.5h4.3v2.1H54c-0.3,0-0.5,0.2-0.5,0.5v11c0,0.3,0.2,0.5,0.5,0.5h3.5v2.2h-4.3c-0.3,0-0.5,0.2-0.5,0.5v2.3
			c0,0.3,0.2,0.5,0.5,0.5h4.3v4.5H59v-4.5h4.3c0.3,0,0.5-0.2,0.5-0.5v-2.3c0-0.3-0.2-0.5-0.5-0.5H59v-2.2h4c0.3,0,0.5-0.2,0.5-0.5
			V10c0-0.3-0.2-0.5-0.5-0.5h-4V7.4H63.4z M62.2,18.5h-7.4v-1.8h7.4V18.5z M62.2,12.3v1.8h-7.4v-1.8H62.2z"/>
		<path class="st0" d="M74.4,2.6h-8.8c-0.3,0-0.5,0.2-0.5,0.5v17.4c0,2.3-0.7,3.2-1.3,3.6c-0.7,0.5-1.6,1.3-1.4,1.6
			c0.2,0.3,1.1,3.8,1.4,4.4c0.3,0.7,0.8,0.6,1.5-0.5c0.7-1.1,1.4-4.8,1.4-6.4c0-0.3,0-1.3,0-2.6h6.6c0,2.8,0,5,0,5.2
			c0,0.6-0.1,1.1-0.6,1.1c-0.5,0-3.9,0-3.9,0s0,0,0.3,0.3c0.3,0.3,1.1,2.9,1.8,2.9c0.7,0,1.8,0,2.6,0c0.8,0,1.4-0.9,1.4-2
			c0-1.1,0-25.2,0-25.2C74.9,2.8,74.7,2.6,74.4,2.6z M73.3,5.9c0,0,0,1.9,0,4.4h-6.6c0-2.5,0-4.4,0-4.4H73.3z M66.8,17.8
			c0-1.4,0-3,0-4.5h6.6c0,1.5,0,3,0,4.5H66.8z"/>
		<path class="st0" d="M99.7,3.9c0-0.3-0.2-0.5-0.5-0.5h-19c-0.3,0-0.5,0.2-0.5,0.5v24.8c0,0.3,0.2,0.5,0.5,0.5h19
			c0.3,0,0.5-0.2,0.5-0.5V3.9z M81.6,6.8h16.4v7.6H81.6V6.8z M81.6,25.9v-8.7h16.4v8.7H81.6z"/>
		<path class="st0" d="M124.4,25.1H115V7.2h8.6c0.3,0,0.5-0.2,0.5-0.5V4.4c0-0.3-0.2-0.5-0.5-0.5h-19.4c-0.3,0-0.5,0.2-0.5,0.5v2.3
			c0,0.3,0.2,0.5,0.5,0.5h8.6v17.9h-9.4c-0.3,0-0.5,0.2-0.5,0.5v2.6c0,0.3,0.2,0.5,0.5,0.5h20.9c0.3,0,0.5-0.2,0.5-0.5v-2.6
			C124.9,25.3,124.7,25.1,124.4,25.1z"/>
		<path class="st0" d="M145,24.6c-2.8-1.2-4.6-2.6-5.1-3.1v-0.1h9.5c0.3,0,0.5-0.2,0.5-0.5v-2c0-0.3-0.2-0.5-0.5-0.5h-9.5v-1.1h8.1
			c0.3,0,0.5-0.2,0.5-0.5v-1.7c0-0.3-0.2-0.5-0.5-0.5h-8.1v-1.3h8.8c0.3,0,0.5-0.2,0.5-0.5v-1.7c0-0.3-0.2-0.5-0.5-0.5h-6.4l1.3-2.5
			h6.1c0.3,0,0.5-0.2,0.5-0.5V5.5c0-0.3-0.2-0.5-0.5-0.5h-4.4l1.6-2.9l-1.2-0.7L143.7,5h-2.1V1h-1.4v4h-2.3V1h-1.4v4h-2.2l-1.9-3.6
			L131,2.1l1.6,2.9h-4.1c-0.3,0-0.5,0.2-0.5,0.5v2.2c0,0.3,0.2,0.5,0.5,0.5h5.8l1.3,2.5h-6.1c-0.3,0-0.5,0.2-0.5,0.5v1.7
			c0,0.3,0.2,0.5,0.5,0.5h8.8v1.3h-8.1c-0.3,0-0.5,0.2-0.5,0.5v1.7c0,0.3,0.2,0.5,0.5,0.5h8.1v1.1h-9.5c-0.3,0-0.5,0.2-0.5,0.5v2
			c0,0.3,0.2,0.5,0.5,0.5h9.5c0,0-1.9,1.7-5.3,3.2c-3.4,1.5-5.8,1.6-5.8,1.6s1.5,2.9,1.8,3.3c0.3,0.4,1.1,0.3,1.8-0.2
			c0.8-0.5,1.9-1.1,4-2.9c2.1-1.8,2.9-2.9,3.4-3.6c0,0,0.1-0.1,0.1-0.1v8.1h1.5v-7.9c0.5,0.7,1.3,1.8,3.3,3.5c2.1,1.8,3.2,2.4,4,2.9
			c0.8,0.5,1.5,0.7,1.8,0.2c0.3-0.4,1.8-3.3,1.8-3.3S148.4,26.1,145,24.6z M137.2,10.7l-1.3-2.5h6.1l-1.3,2.5H137.2z"/>
		<path class="st0" d="M176.1,25.9h-5.7V11.3h4.7c0.3,0,0.5-0.2,0.5-0.5V8.5c0-0.3-0.2-0.5-0.5-0.5h-4.7V0.8h-1.7V8H164
			c-0.3,0-0.5,0.2-0.5,0.5v2.3c0,0.3,0.2,0.5,0.5,0.5h4.7v14.5H163c-0.3,0-0.5,0.2-0.5,0.5v2.4c0,0.3,0.2,0.5,0.5,0.5h13.1
			c0.3,0,0.5-0.2,0.5-0.5v-2.4C176.6,26.1,176.4,25.9,176.1,25.9z"/>
		<path class="st0" d="M164.2,18.5c-0.4-0.3-1.8-1.3-2.7-1.9c-0.7-0.4-1.5-0.6-2-0.6c1-1.9,1.8-3.8,2.4-5.5c0.7-2.1,0.7-3.5,0.7-3.8
			c0-0.3-0.2-0.5-0.5-0.5h-3.2V0.8h-1.7v5.5h-3.3c-0.3,0-0.5,0.2-0.5,0.5v2.1c0,0.3,0.2,0.5,0.5,0.5h6.8c0,0,0,0.9-0.8,2.5
			c-0.8,1.6-1.9,3.4-4,5.4c-2.1,2-3.4,2.5-3.4,2.5s0.9,3,1.1,3.5c0.2,0.5,0.7,0.4,1,0.1c0.3-0.3,1.4-1.9,2.6-3.7v11.2h1.7V17
			c0,0,0,0,0,0c0.4,0.4,1.2,1.2,1.8,2.1c0.8,1.4,1.1,2.1,1.3,2.4c0.1,0.3,0.5,0.3,0.8,0c0.3-0.3,1.4-1.8,1.6-2.1
			C164.6,19.2,164.5,18.8,164.2,18.5z"/>
	</g>
</g>
<g>
</g>
<g>
</g>
<g>
</g>
<g>
</g>
<g>
</g>
<g>
</g>
<g>
</g>
<g>
</g>
<g>
</g>
<g>
</g>
<g>
</g>
<g>
</g>
<g>
</g>
<g>
</g>
<g>
</g>
</svg>
