<svg height="24" viewBox="0 0 233.577 24" width="233.577" xmlns="http://www.w3.org/2000/svg" xmlns:xlink="http://www.w3.org/1999/xlink"><clipPath id="a"><path d="m0 0h233.577v24h-233.577z"/></clipPath><g clip-path="url(#a)"><path d="m24.042 11.971a11.971 11.971 0 1 1 -3.532-8.491 11.971 11.971 0 0 1 3.532 8.491" fill="#0068b7" transform="translate(-.027)"/><path d="m54.253.486h-7.153v2.847a9.2 9.2 0 0 1 0 17.591v2.847h7.153a11.679 11.679 0 1 0 0-23.285" fill="#0068b7" transform="translate(-12.72 -.121)"/><path d="m34.334.486h-6.934v2.92a9.2 9.2 0 0 1 0 17.445v2.92h6.934a11.679 11.679 0 1 0 0-23.285" fill="#0068b7" transform="translate(-7.4 -.121)"/><g fill="#231815"><path d="m103.127 4.9h-17.956a.146.146 0 0 0 -.146.146v4.526a1.314 1.314 0 0 1 -1.314 1.387h-.365a.146.146 0 0 0 -.146.146v3.431a.146.146 0 0 0 .146.146h1.46a6.067 6.067 0 0 0 6.423-5.62.146.146 0 0 1 .146-.146h4.672a.146.146 0 0 1 .146.146v4.964c0 .219-.146.292-.219.292l-4.161-1.971h-.219l-1.533 3.066a.146.146 0 0 0 .073.219l4.6 2.263a.219.219 0 0 1 .073.365 7.664 7.664 0 0 1 -6.642 3.285h-2.045a.146.146 0 0 0 -.146.146v3.358a.146.146 0 0 0 .146.146h4.453c9.562 0 12.774-7.3 12.774-12.555v-7.594a.146.146 0 0 0 -.147-.146" transform="translate(-22.47 -1.323)"/><path d="m186.766 15.047c0 2.847-1.679 6.058-6.423 6.058h-9.2a.146.146 0 0 0 -.146.146v5.839a.146.146 0 0 0 .146.146h9.2c6.35 0 10.073-4.6 10.073-9.562v-5.328a.146.146 0 0 0 -.146-.146h-3.358a.146.146 0 0 0 -.146.146z" transform="translate(-46.182 -3.295)"/><path d="m182.168 11.25a.146.146 0 0 1 -.146.146h-6.422a.157.157 0 0 1 -.146-.146c-.292-1.314-1.095-2.263-3.139-2.263h-1.168a.146.146 0 0 1 -.147-.145v-3.8a.146.146 0 0 1 .146-.146h3.577c4.526 0 7.3 3.212 7.445 6.35" transform="translate(-46.182 -1.323)"/><path d="m109.473 2.574a.219.219 0 0 0 .219-.146v-2.19a.146.146 0 0 0 -.219-.146h-2.555a.146.146 0 0 0 -.219.146v2.19a.146.146 0 0 0 .219.146z" transform="translate(-28.816 -.019)"/><path d="m114.773 2.574a.219.219 0 0 0 .219-.146v-2.19a.146.146 0 0 0 -.219-.146h-2.555a.146.146 0 0 0 -.218.146v2.19a.219.219 0 0 0 .219.146z" transform="translate(-30.248 -.019)"/><path d="m160.727 4.9h-17.956a.146.146 0 0 0 -.146.146v4.526a1.314 1.314 0 0 1 -1.314 1.387h-.365a.146.146 0 0 0 -.146.146v3.431a.146.146 0 0 0 .146.146h1.46a6.067 6.067 0 0 0 6.423-5.62.146.146 0 0 1 .146-.146h4.672a.146.146 0 0 1 .146.146v4.964c0 .219-.146.292-.219.292l-4.088-2.044h-.219l-1.533 3.066a.146.146 0 0 0 .073.219l4.526 2.263a.219.219 0 0 1 .073.365 7.664 7.664 0 0 1 -6.642 3.285h-2.044a.146.146 0 0 0 -.146.146v3.358a.146.146 0 0 0 .146.146h4.453c9.562 0 12.774-7.3 12.774-12.555v-7.521a.146.146 0 0 0 -.147-.146" transform="translate(-38.026 -1.323)"/><path d="m167.073 2.574a.146.146 0 0 0 .219-.146v-2.19a.146.146 0 0 0 -.219-.146h-2.555a.146.146 0 0 0 -.219.146v2.19a.146.146 0 0 0 .219.146z" transform="translate(-44.372 -.019)"/><path d="m172.273 2.574a.146.146 0 0 0 .219-.146v-2.19a.146.146 0 0 0 -.219-.146h-2.555a.146.146 0 0 0 -.219.146v2.19a.146.146 0 0 0 .219.146z" transform="translate(-45.777 -.019)"/><path d="m127.409 15.192a12.714 12.714 0 0 0 5.109-10.146.146.146 0 0 0 -.146-.146h-6.861a.146.146 0 0 0 -.146.146c-.365 4.964-3.5 8.467-9.051 8.467h-3.869a.146.146 0 0 0 -.146.146v3.358a.146.146 0 0 0 .146.146h7.664a.146.146 0 0 1 .146.146v7.737a.146.146 0 0 0 .146.146h6.715a.146.146 0 0 0 .146-.146v-9.635a.219.219 0 0 1 .073-.219" transform="translate(-30.329 -1.323)"/><path d="m300.681 17.336-2.847-2.117a11.752 11.752 0 0 0 2.628-6.861.219.219 0 0 0 -.219-.219h-3.358v-2.92a.219.219 0 0 0 -.219-.219h-2.117a.219.219 0 0 0 -.219.219v2.92h-3.139a.219.219 0 0 0 -.219.219v1.533a.219.219 0 0 0 .219.219h5.985a9.891 9.891 0 0 1 -6.058 7.591.511.511 0 0 0 -.219.292v1.752a.146.146 0 0 0 .219.146 11.46 11.46 0 0 0 3.139-1.387v6.642a.219.219 0 0 0 .219.219h2.117a.219.219 0 0 0 .219-.219v-7.81l3.869 2.263a.14.14 0 0 0 .219-.073v-1.826a.511.511 0 0 0 -.146-.365" transform="translate(-78.564 -1.35)"/><path d="m315.109 23.029h-4.891v-11.022h3.723a.219.219 0 0 0 .219-.219v-1.606a.219.219 0 0 0 -.219-.219h-3.723v-4.744a.219.219 0 0 0 -.218-.219h-1.971a.219.219 0 0 0 -.219.219v4.745h-3.358a.219.219 0 0 0 -.219.219v1.606a.219.219 0 0 0 .219.219h3.358v11.021h-4.891a.219.219 0 0 0 -.219.219v1.533a.219.219 0 0 0 .219.219h12.19a.219.219 0 0 0 .219-.219v-1.533a.219.219 0 0 0 -.219-.219" transform="translate(-81.751 -1.35)"/><path d="m207.38 9.891a.219.219 0 0 0 .219-.219v-1.387a.219.219 0 0 0 -.219-.219h-1.9v-2.847a.219.219 0 0 0 -.217-.219h-1.971a.219.219 0 0 0 -.219.219v2.847h-2.409a.219.219 0 0 0 -.219.219v1.387a.219.219 0 0 0 .219.219h2.409a13.722 13.722 0 0 1 -2.628 7.372.511.511 0 0 0 -.146.292v1.971a.146.146 0 0 0 .219.146 18.321 18.321 0 0 0 2.482-2.993v8.394a.219.219 0 0 0 .219.219h1.971a.219.219 0 0 0 .219-.219v-10.73l1.825 1.825c.073.073.219.073.219-.073v-2.044a.438.438 0 0 0 -.146-.292 18.613 18.613 0 0 1 -1.9-2.847v-1.021z" transform="translate(-54.095 -1.35)"/><path d="m223.485 22.08a13.431 13.431 0 0 1 -2.263-7.445h2.117a.219.219 0 0 0 .219-.219v-1.387a.219.219 0 0 0 -.219-.219h-4.891v-2.92h4.452a.219.219 0 0 0 .219-.219v-1.387a.219.219 0 0 0 -.219-.219h-4.453v-2.847a.219.219 0 0 0 -.217-.218h-1.971a.219.219 0 0 0 -.219.219v2.846h-2.482l.511-2.847a.146.146 0 0 0 -.146-.218h-1.9a.292.292 0 0 0 -.292.219l-1.241 6.642a.146.146 0 0 0 .146.219h1.9a.292.292 0 0 0 .219-.219l.365-1.971h2.847v2.847h-4.891a.219.219 0 0 0 -.219.219v1.387a.219.219 0 0 0 .219.219h2.117a13.431 13.431 0 0 1 -2.263 7.445.949.949 0 0 0 -.146.365v2.555c0 .219.219.146.292.073a14.745 14.745 0 0 0 4.524-10.438h.292v10.51a.219.219 0 0 0 .219.219h1.971a.219.219 0 0 0 .219-.219v-10.437h.292a14.745 14.745 0 0 0 4.672 10.438c.146.073.365.146.365-.073v-2.555a.948.948 0 0 0 -.146-.365" transform="translate(-56.843 -1.35)"/><path d="m243.3 24.24a21.752 21.752 0 0 1 -5.547 1.387v-7.883h3.8a.219.219 0 0 0 .219-.219v-1.606a.219.219 0 0 0 -.219-.219h-10.077a.219.219 0 0 0 -.219.219v1.606a.219.219 0 0 0 .219.219h3.65v8.029h-4.307a.219.219 0 0 0 -.219.219v1.608a.219.219 0 0 0 .219.219h3.5a24.671 24.671 0 0 0 8.978-1.533.365.365 0 0 0 .219-.292v-1.681c0-.146-.073-.146-.219-.146" transform="translate(-62.279 -4.24)"/><path d="m251.284 9.891-1.241-4.6a.292.292 0 0 0 -.292-.219h-1.9a.146.146 0 0 0 -.146.219l.73 2.555a.146.146 0 0 1 -.146.219h-2.409v-2.846a.219.219 0 0 0 -.217-.219h-2.117a.219.219 0 0 0 -.219.219v2.847h-12.408a.219.219 0 0 0 -.219.219v1.606a.219.219 0 0 0 .219.219h12.409v1.39c0 6.715 3.212 11.387 7.372 13.723a.219.219 0 0 0 .365-.219v-1.975a.584.584 0 0 0 -.146-.292 14.38 14.38 0 0 1 -4.964-11.237v-1.391h5.255a.146.146 0 0 0 .146-.219" transform="translate(-62.306 -1.35)"/><path d="m280.673 19.8h-19.854a.219.219 0 0 0 -.219.219v1.606a.219.219 0 0 0 .219.219h4.307l-1.971 5.109h-1.095a.219.219 0 0 0 -.219.219v1.533a.219.219 0 0 0 .219.219h17.591a.146.146 0 0 0 .146-.219l-1.971-5.255a.365.365 0 0 0 -.292-.219h-2.117a.146.146 0 0 0 -.146.219l1.241 3.212a.146.146 0 0 1 -.146.219h-10.583l1.971-5.109h12.92a.219.219 0 0 0 .219-.219v-1.534a.219.219 0 0 0 -.219-.219" transform="translate(-70.381 -5.347)"/><rect height="2.044" rx=".219" transform="translate(192.263 10.292)" width="16.131"/><path d="m280.7 9.334a12.117 12.117 0 0 1 -7.664-4.088c-.146-.146-.146-.146-.292-.146h-3.944c-.146 0-.219 0-.292.146a12.117 12.117 0 0 1 -7.591 4.088.219.219 0 0 0 -.219.219v1.46a.292.292 0 0 0 .292.292 15.328 15.328 0 0 0 9.781-4.672 15.328 15.328 0 0 0 9.854 4.672.292.292 0 0 0 .365-.292v-1.46a.219.219 0 0 0 -.219-.219" transform="translate(-70.408 -1.377)"/></g></g></svg>