<svg xmlns="http://www.w3.org/2000/svg" width="290" height="31" viewBox="0 0 290 31">
  <defs>
    <style>
      .cls-1, .cls-2 {
        fill-rule: evenodd;
      }

      .cls-2 {
        fill: #004ea2;
      }
    </style>
  </defs>
  <path id="シェイプ_2" data-name="シェイプ 2" class="cls-1" d="M242.75,0.192A1.179,1.179,0,0,0,241.636.2L225.181,10.362a0.626,0.626,0,0,0-.179.891l1.357,1.919a0.7,0.7,0,0,0,.939.209l14.333-8.547a1.26,1.26,0,0,1,1.127-.01l14.036,8.082a0.753,0.753,0,0,0,.953-0.2l1.344-1.843a0.6,0.6,0,0,0-.177-0.875ZM38.187,19.752l0.02-17.484a0.658,0.658,0,0,0-.657-0.653H33.46a0.669,0.669,0,0,0-.677.654s-0.1,12.818,0,18.048a31.845,31.845,0,0,1-1.648,10.068,0.41,0.41,0,0,0,.407.605h4.424a0.845,0.845,0,0,0,.783-0.643A36.188,36.188,0,0,0,38.187,19.752Zm5.9,11.095a0.7,0.7,0,0,1-.647-0.7l0-27.877a0.657,0.657,0,0,1,.652-0.653h4.129a0.653,0.653,0,0,1,.647.654V30.241a0.626,0.626,0,0,1-.667.605H44.091Zm10.96,0a0.7,0.7,0,0,1-.654-0.7V2.268a0.658,0.658,0,0,1,.654-0.653h4.126a0.658,0.658,0,0,1,.654.654L59.81,30.241a0.615,0.615,0,0,1-.649.605h-4.11ZM82.407,11.121a0.911,0.911,0,0,1,.733.613L89.708,30.2a1.011,1.011,0,0,0,.879.615h3.976a0.444,0.444,0,0,0,.442-0.62L87.545,7.577A0.445,0.445,0,0,1,88,6.96h4.934a0.658,0.658,0,0,0,.652-0.672V4.632a0.654,0.654,0,0,0-.652-0.651H82.553A0.669,0.669,0,0,1,81.9,3.309V0.917A0.656,0.656,0,0,0,81.247.266h-4.2a0.654,0.654,0,0,0-.654.651V3.309a0.668,0.668,0,0,1-.652.671h-10.5a0.656,0.656,0,0,0-.657.651V6.288a0.661,0.661,0,0,0,.657.672h5.417a0.434,0.434,0,0,1,.437.613L63.36,30.2a0.44,0.44,0,0,0,.442.62h4.356a0.993,0.993,0,0,0,.869-0.62L75.32,11.739a0.861,0.861,0,0,1,.647-0.618,0.58,0.58,0,0,1,.427.656V23.558a0.651,0.651,0,0,1-.652.646H73.109a0.664,0.664,0,0,0-.649.671v1.767a0.657,0.657,0,0,0,.649.656h2.633a0.667,0.667,0,0,1,.652.666v2.2a0.66,0.66,0,0,0,.654.658h4.2A0.662,0.662,0,0,0,81.9,30.16v-2.2a0.668,0.668,0,0,1,.652-0.666H85.63a0.657,0.657,0,0,0,.657-0.656V24.875A0.664,0.664,0,0,0,85.63,24.2H82.553a0.653,0.653,0,0,1-.652-0.646V11.777A0.6,0.6,0,0,1,82.407,11.121Zm42.676-7.96a0.659,0.659,0,0,0-.655-0.651H99.25a0.657,0.657,0,0,0-.652.651V4.823a0.667,0.667,0,0,0,.652.674h9.158a0.65,0.65,0,0,1,.652.651v20.89a0.657,0.657,0,0,1-.652.669h-10.5a0.658,0.658,0,0,0-.654.654v1.889a0.654,0.654,0,0,0,.654.651h28.25a0.654,0.654,0,0,0,.655-0.651V28.36a0.658,0.658,0,0,0-.655-0.654H115.74a0.656,0.656,0,0,1-.654-0.669V6.148A0.649,0.649,0,0,1,115.74,5.5h8.688a0.669,0.669,0,0,0,.655-0.674V3.161Zm22.356,20.821V30.17a0.658,0.658,0,0,1-.652.656h-4.454a0.661,0.661,0,0,1-.657-0.656V23.982a0.585,0.585,0,0,0-.445-0.654,1.222,1.222,0,0,0-.818.541L136,30.287a1.4,1.4,0,0,1-1.028.539H130.62a0.348,0.348,0,0,1-.328-0.569l4.825-8.5a0.347,0.347,0,0,0-.323-0.572h-4.285a0.656,0.656,0,0,1-.651-0.651V19.525a0.672,0.672,0,0,1,.651-0.671H140.64a0.65,0.65,0,0,0,.655-0.646V17.684a0.655,0.655,0,0,0-.655-0.661H130.509a0.659,0.659,0,0,1-.651-0.656V15.573a0.658,0.658,0,0,1,.651-0.659h10.23a0.661,0.661,0,0,0,.649-0.664v-0.5a0.658,0.658,0,0,0-.649-0.669h-10.23a0.654,0.654,0,0,1-.651-0.648V11.307a0.666,0.666,0,0,1,.651-0.666h5.526a0.656,0.656,0,0,0,.651-0.651V8.767a0.657,0.657,0,0,0-.651-0.653h-5.526a0.666,0.666,0,0,1-.651-0.666V6.158a0.655,0.655,0,0,1,.651-0.653h2.933a0.489,0.489,0,0,0,.488-0.651l-0.823-3.2a0.486,0.486,0,0,1,.49-0.638h2.243a0.869,0.869,0,0,1,.8.641l0.666,2.908a0.877,0.877,0,0,0,.8.651h0.614a0.659,0.659,0,0,0,.652-0.661V1.675a0.663,0.663,0,0,1,.654-0.661h2.441a0.659,0.659,0,0,1,.652.661V4.642a0.665,0.665,0,0,0,.654.671h1.571A0.666,0.666,0,0,0,146,4.642V1.675a0.662,0.662,0,0,1,.655-0.661h2.243a0.66,0.66,0,0,1,.657.661V4.739a0.663,0.663,0,0,0,.652.671h0.328a0.977,0.977,0,0,0,.859-0.638l1.028-3.13a0.965,0.965,0,0,1,.857-0.628h2.147a0.5,0.5,0,0,1,.511.641l-0.673,3a0.514,0.514,0,0,0,.511.656h2.837a0.652,0.652,0,0,1,.652.648V7.447a0.667,0.667,0,0,1-.652.666h-5.715a0.657,0.657,0,0,0-.657.653V9.99a0.657,0.657,0,0,0,.657.651h5.715a0.667,0.667,0,0,1,.652.666v1.131a0.655,0.655,0,0,1-.652.648H148.285a0.658,0.658,0,0,0-.652.669v0.5a0.66,0.66,0,0,0,.652.664h10.323a0.659,0.659,0,0,1,.652.659v0.794a0.66,0.66,0,0,1-.652.656H148.285a0.649,0.649,0,0,0-.652.661v0.523a0.644,0.644,0,0,0,.652.646h10.323a0.673,0.673,0,0,1,.652.671v1.009a0.657,0.657,0,0,1-.652.651h-4.75a0.333,0.333,0,0,0-.31.556L158.8,30.27a0.33,0.33,0,0,1-.3.557h-4.55a1.343,1.343,0,0,1-1.015-.546l-4.169-6.4a1.212,1.212,0,0,0-.844-0.546A0.59,0.59,0,0,0,147.439,23.982Zm-5.073-13.936a1.107,1.107,0,0,0,.927.595h2.339a1.141,1.141,0,0,0,.943-0.59L147.244,8.7a0.374,0.374,0,0,0-.363-0.585h-4.742a0.39,0.39,0,0,0-.382.595ZM186.78,23.3a0.827,0.827,0,0,1,.561.623l1.92,6.109a0.987,0.987,0,0,0,.849.661l2.756,0.11a0.478,0.478,0,0,0,.516-0.608L190.3,15.675a0.511,0.511,0,0,1,.513-0.643h1.051a0.662,0.662,0,0,0,.647-0.664V12.862a0.651,0.651,0,0,0-.647-0.651h-4.795a0.668,0.668,0,0,1-.654-0.664V8.563a0.664,0.664,0,0,1,.654-0.661h4.795a0.658,0.658,0,0,0,.647-0.659V6.23a0.652,0.652,0,0,0-.647-0.654h-4.795a0.66,0.66,0,0,1-.654-0.664V1.675a0.658,0.658,0,0,0-.652-0.661h-3.431a0.658,0.658,0,0,0-.649.661V4.912a0.853,0.853,0,0,1-.642.8s-1.632.342-1.632-1.11V1.675a0.658,0.658,0,0,0-.654-0.661h-2.726a0.661,0.661,0,0,0-.652.661v3.04c0,0.368.02,0.96,0.048,1.32,0,0,.144,1.866,2.835,1.866h2.766a0.667,0.667,0,0,1,.657.661v2.984a0.671,0.671,0,0,1-.657.664h-5.669a0.654,0.654,0,0,0-.652.651v0.523c0,0.37-.074.383-0.164,0.028l-1.019-3.982a0.489,0.489,0,0,1,.491-0.646h0.037a0.659,0.659,0,0,0,.655-0.651V6.852a0.667,0.667,0,0,0-.655-0.666h-1.44a0.654,0.654,0,0,1-.654-0.651V1.675a0.661,0.661,0,0,0-.654-0.661H168a0.662,0.662,0,0,0-.657.661v3.86a0.65,0.65,0,0,1-.649.651h-3.052a0.664,0.664,0,0,0-.654.666V8.134a0.656,0.656,0,0,0,.654.651h1.382a0.476,0.476,0,0,1,.475.643L161.731,22.69a0.473,0.473,0,0,0,.475.638h2.534A0.984,0.984,0,0,0,165.6,22.7l0.811-2.44a0.84,0.84,0,0,1,.571-0.618,0.575,0.575,0,0,1,.363.654v9.88a0.662,0.662,0,0,0,.657.659h3.3a0.661,0.661,0,0,0,.654-0.659V19.333c0-.37.22-0.48,0.495-0.225l0.177,0.153a2,2,0,0,0,1.145.426h1.722a0.484,0.484,0,0,0,.486-0.636l-0.865-3.383a0.489,0.489,0,0,1,.491-0.638h1.806a0.518,0.518,0,0,1,.521.643l-2.908,14.518a0.515,0.515,0,0,0,.523.641h3.11a0.847,0.847,0,0,0,.788-0.638l1.316-6.254a0.75,0.75,0,0,1,.528-0.641,0.581,0.581,0,0,1,.392.656v6.219a0.658,0.658,0,0,0,.649.659h3.431a0.657,0.657,0,0,0,.652-0.659V23.956A0.581,0.581,0,0,1,186.78,23.3ZM225.27,4.238l-0.134-2.663a0.7,0.7,0,0,0-.685-0.658h-3.014a0.706,0.706,0,0,0-.687.658l-0.126,2.568a1.694,1.694,0,0,1-.543,1.059,1.553,1.553,0,0,1-2.37-.6l-0.869-3.048A0.952,0.952,0,0,0,216,.917h-4.166a0.544,0.544,0,0,0-.545.656l0.464,3.056a0.551,0.551,0,0,1-.548.661H196.876a0.655,0.655,0,0,0-.655.654V7.718a0.657,0.657,0,0,0,.655.669h14.905a0.816,0.816,0,0,1,.768.646l3.126,17.331c0.065,0.36.156,0.945,0.2,1.307,0,0,.394,3.079,3.372,3.176s6.066,0.013,6.066.013a0.675,0.675,0,0,0,.655-0.666V28.444a0.657,0.657,0,0,0-.655-0.653H222.4a0.8,0.8,0,0,1-.758-0.661l-3.044-18.1a0.532,0.532,0,0,1,.538-0.646h1.192c0.359,0,.948.028,1.3,0.048C221.627,8.435,225.712,8.139,225.27,4.238Zm-28.394,8.539a0.652,0.652,0,0,0-.655.659v1.279a0.655,0.655,0,0,0,.655.669h4.282a0.659,0.659,0,0,1,.654.646V27.147a0.659,0.659,0,0,1-.654.669h-4.295a0.652,0.652,0,0,0-.654.651v1.726a0.655,0.655,0,0,0,.654.654h14.918a0.654,0.654,0,0,0,.652-0.654V28.467a0.652,0.652,0,0,0-.652-0.651h-4.062a0.657,0.657,0,0,1-.649-0.669V16.03a0.657,0.657,0,0,1,.649-0.646h3.294a0.651,0.651,0,0,0,.65-0.669V13.436a0.648,0.648,0,0,0-.65-0.659H196.876ZM234.4,10.615a0.662,0.662,0,0,0-.649.664v1.409a0.659,0.659,0,0,0,.649.656h15.113a0.656,0.656,0,0,0,.652-0.656V11.279a0.66,0.66,0,0,0-.652-0.664H234.4Zm-1.341,20.106h19.554s4.176-.452,2.645-3.717l-3.939-5.384a1.455,1.455,0,0,0-1.035-.531h-4.937a0.314,0.314,0,0,0-.28.541l3.673,5.335a0.321,0.321,0,0,1-.283.551H235.835a0.326,0.326,0,0,1-.28-0.562l4.641-6.9a1.385,1.385,0,0,1,1.018-.536h13.862a0.658,0.658,0,0,0,.652-0.671V17.194a0.652,0.652,0,0,0-.652-0.651H229.648a0.653,0.653,0,0,0-.657.651v1.657a0.659,0.659,0,0,0,.657.671h3.732c0.358,0,.482.238,0.277,0.531l-4.325,6.67S226.831,30.887,233.054,30.721ZM273.105,8.627l-2.691,3.788a0.956,0.956,0,0,0,.015,1.054l4.2,5.552c0.22,0.291.106,0.518-.255,0.518H271.65a2.05,2.05,0,0,1-1.152-.416l-0.473-.416c-0.27-.237-0.5-0.133-0.5.232V29.864a0.65,0.65,0,0,1-.651.664h-3.949a0.654,0.654,0,0,1-.655-0.664V20.788c0-.362-0.207-0.457-0.469-0.2l-0.5.485a1.844,1.844,0,0,1-1.117.452h-3.014c-0.356,0-.477-0.238-0.265-0.521l9.3-12.384c0.217-.283.1-0.521-0.261-0.521H260.8a0.666,0.666,0,0,1-.654-0.669V5.75a0.665,0.665,0,0,1,.654-0.661h2.82a0.662,0.662,0,0,0,.651-0.661V1.3a0.66,0.66,0,0,1,.655-0.664h3.949a0.656,0.656,0,0,1,.651.664v3.13a0.637,0.637,0,0,0,.592.661S273.491,5.722,273.105,8.627Zm5.672-7.993a0.656,0.656,0,0,0-.652.664v5.56a0.658,0.658,0,0,1-.654.654h-3.328a0.658,0.658,0,0,0-.652.669V9.571a0.655,0.655,0,0,0,.652.656h3.328a0.661,0.661,0,0,1,.654.669V27.048a0.66,0.66,0,0,1-.654.671h-5.437a0.655,0.655,0,0,0-.655.653v1.491a0.652,0.652,0,0,0,.655.664h17.318A0.648,0.648,0,0,0,290,29.864V28.373a0.65,0.65,0,0,0-.649-0.653h-5.419a0.656,0.656,0,0,1-.649-0.671V10.9a0.657,0.657,0,0,1,.649-0.669h3.11a0.662,0.662,0,0,0,.66-0.656V8.18a0.665,0.665,0,0,0-.66-0.669h-3.11a0.654,0.654,0,0,1-.649-0.654V1.3a0.66,0.66,0,0,0-.655-0.664h-3.852Z"/>
  <path id="シェイプ_3" data-name="シェイプ 3" class="cls-2" d="M26.371,1.993H12.528a1.291,1.291,0,0,0-.88,1.135V17.516a0.643,0.643,0,0,1-.689.693H0.556a0.558,0.558,0,0,0-.564.58v2.56a0.682,0.682,0,0,0,.564.7H11.791a0.823,0.823,0,0,0,.709-0.872V6.9a1.067,1.067,0,0,1,1.109-.977H26.371a0.4,0.4,0,0,0,.561-0.445V2.626A0.545,0.545,0,0,0,26.371,1.993Zm0,4.482H13.855a1.3,1.3,0,0,0-.878,1.133v14.4a0.636,0.636,0,0,1-.694.681H0.556a0.562,0.562,0,0,0-.564.593v2.545a0.68,0.68,0,0,0,.564.7H13.118a0.82,0.82,0,0,0,.714-0.864V11.391a1.069,1.069,0,0,1,1.109-.985H26.371a0.4,0.4,0,0,0,.561-0.437V7.125A0.557,0.557,0,0,0,26.371,6.474Zm0,4.477H15.183a1.3,1.3,0,0,0-.883,1.118v14.4a0.635,0.635,0,0,1-.691.681H0.556a0.565,0.565,0,0,0-.564.6v2.557a0.676,0.676,0,0,0,.564.693H14.448a0.838,0.838,0,0,0,.706-0.864V15.86a1.082,1.082,0,0,1,1.111-.992h10.1a0.4,0.4,0,0,0,.561-0.432V11.587A0.547,0.547,0,0,0,26.371,10.951Z"/>
</svg>
